<mxfile host="app.diagrams.net" modified="2022-03-14T06:24:00.183Z" agent="5.0 (Macintosh; Intel Mac OS X 10_15_7) AppleWebKit/537.36 (KHTML, like Gecko) Chrome/96.0.4664.110 Safari/537.36" etag="NykaPhMOq2Pn0r7lm6v7" version="16.2.7" type="github">
  <diagram id="k8e8PTeCGIX45DbwhQg6" name="Page-1">
    <mxGraphModel dx="1018" dy="659" grid="1" gridSize="10" guides="1" tooltips="1" connect="1" arrows="1" fold="1" page="1" pageScale="1" pageWidth="827" pageHeight="1169" math="0" shadow="0">
      <root>
        <mxCell id="0" />
        <mxCell id="1" parent="0" />
        <mxCell id="e-bXhuMB9QTkd1GDTewm-4" value="" style="edgeStyle=orthogonalEdgeStyle;rounded=0;orthogonalLoop=1;jettySize=auto;html=1;fontSize=20;" edge="1" parent="1" source="e-bXhuMB9QTkd1GDTewm-1" target="e-bXhuMB9QTkd1GDTewm-2">
          <mxGeometry relative="1" as="geometry" />
        </mxCell>
        <mxCell id="e-bXhuMB9QTkd1GDTewm-1" value="&lt;font style=&quot;font-size: 20px&quot;&gt;数据均衡处理&lt;/font&gt;" style="rounded=1;whiteSpace=wrap;html=1;" vertex="1" parent="1">
          <mxGeometry x="640" y="490" width="150" height="60" as="geometry" />
        </mxCell>
        <mxCell id="e-bXhuMB9QTkd1GDTewm-5" value="" style="edgeStyle=orthogonalEdgeStyle;rounded=0;orthogonalLoop=1;jettySize=auto;html=1;fontSize=20;" edge="1" parent="1" source="e-bXhuMB9QTkd1GDTewm-2" target="e-bXhuMB9QTkd1GDTewm-3">
          <mxGeometry relative="1" as="geometry" />
        </mxCell>
        <mxCell id="e-bXhuMB9QTkd1GDTewm-2" value="&lt;font style=&quot;font-size: 20px&quot;&gt;设置训练目标&lt;/font&gt;" style="rounded=1;whiteSpace=wrap;html=1;" vertex="1" parent="1">
          <mxGeometry x="640" y="600" width="150" height="60" as="geometry" />
        </mxCell>
        <mxCell id="e-bXhuMB9QTkd1GDTewm-3" value="&lt;font style=&quot;font-size: 20px&quot;&gt;LTR模型训练&lt;/font&gt;" style="rounded=1;whiteSpace=wrap;html=1;" vertex="1" parent="1">
          <mxGeometry x="640" y="720" width="150" height="60" as="geometry" />
        </mxCell>
        <mxCell id="e-bXhuMB9QTkd1GDTewm-128" value="" style="verticalLabelPosition=bottom;verticalAlign=top;html=1;shape=mxgraph.basic.polygon;polyCoords=[[0.25,0],[0.75,0],[1,0.25],[1,0.75],[0.75,1],[0.25,1],[0,0.75],[0,0.25]];polyline=0;" vertex="1" parent="1">
          <mxGeometry x="420" y="100" width="100" height="100" as="geometry" />
        </mxCell>
        <mxCell id="e-bXhuMB9QTkd1GDTewm-129" value="" style="ellipse;whiteSpace=wrap;html=1;fillColor=#f5f5f5;fontColor=#333333;strokeColor=#666666;" vertex="1" parent="1">
          <mxGeometry x="80" y="50" width="270" height="200" as="geometry" />
        </mxCell>
        <mxCell id="e-bXhuMB9QTkd1GDTewm-130" value="" style="shape=table;html=1;whiteSpace=wrap;startSize=0;container=1;collapsible=0;childLayout=tableLayout;fillColor=#1ba1e2;fontColor=#ffffff;strokeColor=#006EAF;" vertex="1" parent="1">
          <mxGeometry x="540" y="160" width="150" height="20" as="geometry" />
        </mxCell>
        <mxCell id="e-bXhuMB9QTkd1GDTewm-131" value="" style="shape=tableRow;horizontal=0;startSize=0;swimlaneHead=0;swimlaneBody=0;top=0;left=0;bottom=0;right=0;collapsible=0;dropTarget=0;fillColor=none;points=[[0,0.5],[1,0.5]];portConstraint=eastwest;" vertex="1" parent="e-bXhuMB9QTkd1GDTewm-130">
          <mxGeometry width="150" height="20" as="geometry" />
        </mxCell>
        <mxCell id="e-bXhuMB9QTkd1GDTewm-132" value="" style="shape=partialRectangle;html=1;whiteSpace=wrap;connectable=0;fillColor=#dae8fc;top=0;left=0;bottom=0;right=0;overflow=hidden;strokeColor=#6c8ebf;" vertex="1" parent="e-bXhuMB9QTkd1GDTewm-131">
          <mxGeometry width="50" height="20" as="geometry">
            <mxRectangle width="50" height="20" as="alternateBounds" />
          </mxGeometry>
        </mxCell>
        <mxCell id="e-bXhuMB9QTkd1GDTewm-133" value="" style="shape=partialRectangle;html=1;whiteSpace=wrap;connectable=0;fillColor=#d5e8d4;top=0;left=0;bottom=0;right=0;overflow=hidden;strokeColor=#82b366;" vertex="1" parent="e-bXhuMB9QTkd1GDTewm-131">
          <mxGeometry x="50" width="50" height="20" as="geometry">
            <mxRectangle width="50" height="20" as="alternateBounds" />
          </mxGeometry>
        </mxCell>
        <mxCell id="e-bXhuMB9QTkd1GDTewm-134" value="" style="shape=partialRectangle;html=1;whiteSpace=wrap;connectable=0;fillColor=#f0a30a;top=0;left=0;bottom=0;right=0;overflow=hidden;fontColor=#000000;strokeColor=#BD7000;" vertex="1" parent="e-bXhuMB9QTkd1GDTewm-131">
          <mxGeometry x="100" width="50" height="20" as="geometry">
            <mxRectangle width="50" height="20" as="alternateBounds" />
          </mxGeometry>
        </mxCell>
        <mxCell id="e-bXhuMB9QTkd1GDTewm-135" value="" style="shape=table;html=1;whiteSpace=wrap;startSize=0;container=1;collapsible=0;childLayout=tableLayout;fillColor=#1ba1e2;fontColor=#ffffff;strokeColor=#006EAF;" vertex="1" parent="1">
          <mxGeometry x="540" y="210" width="150" height="20" as="geometry" />
        </mxCell>
        <mxCell id="e-bXhuMB9QTkd1GDTewm-136" value="" style="shape=tableRow;horizontal=0;startSize=0;swimlaneHead=0;swimlaneBody=0;top=0;left=0;bottom=0;right=0;collapsible=0;dropTarget=0;fillColor=none;points=[[0,0.5],[1,0.5]];portConstraint=eastwest;" vertex="1" parent="e-bXhuMB9QTkd1GDTewm-135">
          <mxGeometry width="150" height="20" as="geometry" />
        </mxCell>
        <mxCell id="e-bXhuMB9QTkd1GDTewm-137" value="" style="shape=partialRectangle;html=1;whiteSpace=wrap;connectable=0;fillColor=#dae8fc;top=0;left=0;bottom=0;right=0;overflow=hidden;strokeColor=#6c8ebf;" vertex="1" parent="e-bXhuMB9QTkd1GDTewm-136">
          <mxGeometry width="50" height="20" as="geometry">
            <mxRectangle width="50" height="20" as="alternateBounds" />
          </mxGeometry>
        </mxCell>
        <mxCell id="e-bXhuMB9QTkd1GDTewm-138" value="" style="shape=partialRectangle;html=1;whiteSpace=wrap;connectable=0;fillColor=#d5e8d4;top=0;left=0;bottom=0;right=0;overflow=hidden;strokeColor=#82b366;" vertex="1" parent="e-bXhuMB9QTkd1GDTewm-136">
          <mxGeometry x="50" width="50" height="20" as="geometry">
            <mxRectangle width="50" height="20" as="alternateBounds" />
          </mxGeometry>
        </mxCell>
        <mxCell id="e-bXhuMB9QTkd1GDTewm-139" value="" style="shape=partialRectangle;html=1;whiteSpace=wrap;connectable=0;top=0;left=0;bottom=0;right=0;overflow=hidden;" vertex="1" parent="e-bXhuMB9QTkd1GDTewm-136">
          <mxGeometry x="100" width="50" height="20" as="geometry">
            <mxRectangle width="50" height="20" as="alternateBounds" />
          </mxGeometry>
        </mxCell>
        <mxCell id="e-bXhuMB9QTkd1GDTewm-140" value="含bug标签实例" style="text;html=1;strokeColor=none;fillColor=none;align=center;verticalAlign=middle;whiteSpace=wrap;rounded=0;" vertex="1" parent="1">
          <mxGeometry x="700" y="155" width="100" height="30" as="geometry" />
        </mxCell>
        <mxCell id="e-bXhuMB9QTkd1GDTewm-141" value="不含bug标签实例" style="text;html=1;strokeColor=none;fillColor=none;align=center;verticalAlign=middle;whiteSpace=wrap;rounded=0;" vertex="1" parent="1">
          <mxGeometry x="710" y="205" width="100" height="30" as="geometry" />
        </mxCell>
        <mxCell id="e-bXhuMB9QTkd1GDTewm-142" value="" style="rounded=0;whiteSpace=wrap;html=1;fillColor=#dae8fc;strokeColor=#6c8ebf;" vertex="1" parent="1">
          <mxGeometry x="540" y="110" width="50" height="20" as="geometry" />
        </mxCell>
        <mxCell id="e-bXhuMB9QTkd1GDTewm-143" value="bug报告" style="text;html=1;strokeColor=none;fillColor=none;align=center;verticalAlign=middle;whiteSpace=wrap;rounded=0;" vertex="1" parent="1">
          <mxGeometry x="590" y="105" width="100" height="30" as="geometry" />
        </mxCell>
        <mxCell id="e-bXhuMB9QTkd1GDTewm-144" value="" style="rounded=0;whiteSpace=wrap;html=1;fillColor=#d5e8d4;strokeColor=#82b366;" vertex="1" parent="1">
          <mxGeometry x="540" y="75" width="50" height="20" as="geometry" />
        </mxCell>
        <mxCell id="e-bXhuMB9QTkd1GDTewm-145" value="源文件" style="text;html=1;strokeColor=none;fillColor=none;align=center;verticalAlign=middle;whiteSpace=wrap;rounded=0;" vertex="1" parent="1">
          <mxGeometry x="590" y="70" width="100" height="30" as="geometry" />
        </mxCell>
        <mxCell id="e-bXhuMB9QTkd1GDTewm-146" value="" style="shape=table;html=1;whiteSpace=wrap;startSize=0;container=1;collapsible=0;childLayout=tableLayout;fillColor=#1ba1e2;fontColor=#ffffff;strokeColor=#006EAF;" vertex="1" parent="1">
          <mxGeometry x="210" y="120" width="60" height="20" as="geometry" />
        </mxCell>
        <mxCell id="e-bXhuMB9QTkd1GDTewm-147" value="" style="shape=tableRow;horizontal=0;startSize=0;swimlaneHead=0;swimlaneBody=0;top=0;left=0;bottom=0;right=0;collapsible=0;dropTarget=0;fillColor=none;points=[[0,0.5],[1,0.5]];portConstraint=eastwest;" vertex="1" parent="e-bXhuMB9QTkd1GDTewm-146">
          <mxGeometry width="60" height="20" as="geometry" />
        </mxCell>
        <mxCell id="e-bXhuMB9QTkd1GDTewm-148" value="" style="shape=partialRectangle;html=1;whiteSpace=wrap;connectable=0;fillColor=#dae8fc;top=0;left=0;bottom=0;right=0;overflow=hidden;strokeColor=#6c8ebf;" vertex="1" parent="e-bXhuMB9QTkd1GDTewm-147">
          <mxGeometry width="20" height="20" as="geometry">
            <mxRectangle width="20" height="20" as="alternateBounds" />
          </mxGeometry>
        </mxCell>
        <mxCell id="e-bXhuMB9QTkd1GDTewm-149" value="" style="shape=partialRectangle;html=1;whiteSpace=wrap;connectable=0;fillColor=#d5e8d4;top=0;left=0;bottom=0;right=0;overflow=hidden;strokeColor=#82b366;" vertex="1" parent="e-bXhuMB9QTkd1GDTewm-147">
          <mxGeometry x="20" width="20" height="20" as="geometry">
            <mxRectangle width="20" height="20" as="alternateBounds" />
          </mxGeometry>
        </mxCell>
        <mxCell id="e-bXhuMB9QTkd1GDTewm-150" value="" style="shape=partialRectangle;html=1;whiteSpace=wrap;connectable=0;fillColor=#f0a30a;top=0;left=0;bottom=0;right=0;overflow=hidden;fontColor=#000000;strokeColor=#BD7000;" vertex="1" parent="e-bXhuMB9QTkd1GDTewm-147">
          <mxGeometry x="40" width="20" height="20" as="geometry">
            <mxRectangle width="20" height="20" as="alternateBounds" />
          </mxGeometry>
        </mxCell>
        <mxCell id="e-bXhuMB9QTkd1GDTewm-151" value="" style="shape=table;html=1;whiteSpace=wrap;startSize=0;container=1;collapsible=0;childLayout=tableLayout;fillColor=#1ba1e2;fontColor=#ffffff;strokeColor=#006EAF;" vertex="1" parent="1">
          <mxGeometry x="120" y="140" width="60" height="20" as="geometry" />
        </mxCell>
        <mxCell id="e-bXhuMB9QTkd1GDTewm-152" value="" style="shape=tableRow;horizontal=0;startSize=0;swimlaneHead=0;swimlaneBody=0;top=0;left=0;bottom=0;right=0;collapsible=0;dropTarget=0;fillColor=none;points=[[0,0.5],[1,0.5]];portConstraint=eastwest;" vertex="1" parent="e-bXhuMB9QTkd1GDTewm-151">
          <mxGeometry width="60" height="20" as="geometry" />
        </mxCell>
        <mxCell id="e-bXhuMB9QTkd1GDTewm-153" value="" style="shape=partialRectangle;html=1;whiteSpace=wrap;connectable=0;fillColor=#dae8fc;top=0;left=0;bottom=0;right=0;overflow=hidden;strokeColor=#6c8ebf;" vertex="1" parent="e-bXhuMB9QTkd1GDTewm-152">
          <mxGeometry width="20" height="20" as="geometry">
            <mxRectangle width="20" height="20" as="alternateBounds" />
          </mxGeometry>
        </mxCell>
        <mxCell id="e-bXhuMB9QTkd1GDTewm-154" value="" style="shape=partialRectangle;html=1;whiteSpace=wrap;connectable=0;fillColor=#d5e8d4;top=0;left=0;bottom=0;right=0;overflow=hidden;strokeColor=#82b366;" vertex="1" parent="e-bXhuMB9QTkd1GDTewm-152">
          <mxGeometry x="20" width="20" height="20" as="geometry">
            <mxRectangle width="20" height="20" as="alternateBounds" />
          </mxGeometry>
        </mxCell>
        <mxCell id="e-bXhuMB9QTkd1GDTewm-155" value="" style="shape=partialRectangle;html=1;whiteSpace=wrap;connectable=0;top=0;left=0;bottom=0;right=0;overflow=hidden;" vertex="1" parent="e-bXhuMB9QTkd1GDTewm-152">
          <mxGeometry x="40" width="20" height="20" as="geometry">
            <mxRectangle width="20" height="20" as="alternateBounds" />
          </mxGeometry>
        </mxCell>
        <mxCell id="e-bXhuMB9QTkd1GDTewm-156" value="" style="shape=table;html=1;whiteSpace=wrap;startSize=0;container=1;collapsible=0;childLayout=tableLayout;fillColor=#1ba1e2;fontColor=#ffffff;strokeColor=#006EAF;" vertex="1" parent="1">
          <mxGeometry x="130" y="100" width="60" height="20" as="geometry" />
        </mxCell>
        <mxCell id="e-bXhuMB9QTkd1GDTewm-157" value="" style="shape=tableRow;horizontal=0;startSize=0;swimlaneHead=0;swimlaneBody=0;top=0;left=0;bottom=0;right=0;collapsible=0;dropTarget=0;fillColor=none;points=[[0,0.5],[1,0.5]];portConstraint=eastwest;" vertex="1" parent="e-bXhuMB9QTkd1GDTewm-156">
          <mxGeometry width="60" height="20" as="geometry" />
        </mxCell>
        <mxCell id="e-bXhuMB9QTkd1GDTewm-158" value="" style="shape=partialRectangle;html=1;whiteSpace=wrap;connectable=0;fillColor=#dae8fc;top=0;left=0;bottom=0;right=0;overflow=hidden;strokeColor=#6c8ebf;" vertex="1" parent="e-bXhuMB9QTkd1GDTewm-157">
          <mxGeometry width="20" height="20" as="geometry">
            <mxRectangle width="20" height="20" as="alternateBounds" />
          </mxGeometry>
        </mxCell>
        <mxCell id="e-bXhuMB9QTkd1GDTewm-159" value="" style="shape=partialRectangle;html=1;whiteSpace=wrap;connectable=0;fillColor=#d5e8d4;top=0;left=0;bottom=0;right=0;overflow=hidden;strokeColor=#82b366;" vertex="1" parent="e-bXhuMB9QTkd1GDTewm-157">
          <mxGeometry x="20" width="20" height="20" as="geometry">
            <mxRectangle width="20" height="20" as="alternateBounds" />
          </mxGeometry>
        </mxCell>
        <mxCell id="e-bXhuMB9QTkd1GDTewm-160" value="" style="shape=partialRectangle;html=1;whiteSpace=wrap;connectable=0;fillColor=#f0a30a;top=0;left=0;bottom=0;right=0;overflow=hidden;fontColor=#000000;strokeColor=#BD7000;" vertex="1" parent="e-bXhuMB9QTkd1GDTewm-157">
          <mxGeometry x="40" width="20" height="20" as="geometry">
            <mxRectangle width="20" height="20" as="alternateBounds" />
          </mxGeometry>
        </mxCell>
        <mxCell id="e-bXhuMB9QTkd1GDTewm-161" value="" style="shape=table;html=1;whiteSpace=wrap;startSize=0;container=1;collapsible=0;childLayout=tableLayout;fillColor=#1ba1e2;fontColor=#ffffff;strokeColor=#006EAF;" vertex="1" parent="1">
          <mxGeometry x="210" y="80" width="60" height="20" as="geometry" />
        </mxCell>
        <mxCell id="e-bXhuMB9QTkd1GDTewm-162" value="" style="shape=tableRow;horizontal=0;startSize=0;swimlaneHead=0;swimlaneBody=0;top=0;left=0;bottom=0;right=0;collapsible=0;dropTarget=0;fillColor=none;points=[[0,0.5],[1,0.5]];portConstraint=eastwest;" vertex="1" parent="e-bXhuMB9QTkd1GDTewm-161">
          <mxGeometry width="60" height="20" as="geometry" />
        </mxCell>
        <mxCell id="e-bXhuMB9QTkd1GDTewm-163" value="" style="shape=partialRectangle;html=1;whiteSpace=wrap;connectable=0;fillColor=#dae8fc;top=0;left=0;bottom=0;right=0;overflow=hidden;strokeColor=#6c8ebf;" vertex="1" parent="e-bXhuMB9QTkd1GDTewm-162">
          <mxGeometry width="20" height="20" as="geometry">
            <mxRectangle width="20" height="20" as="alternateBounds" />
          </mxGeometry>
        </mxCell>
        <mxCell id="e-bXhuMB9QTkd1GDTewm-164" value="" style="shape=partialRectangle;html=1;whiteSpace=wrap;connectable=0;fillColor=#d5e8d4;top=0;left=0;bottom=0;right=0;overflow=hidden;strokeColor=#82b366;" vertex="1" parent="e-bXhuMB9QTkd1GDTewm-162">
          <mxGeometry x="20" width="20" height="20" as="geometry">
            <mxRectangle width="20" height="20" as="alternateBounds" />
          </mxGeometry>
        </mxCell>
        <mxCell id="e-bXhuMB9QTkd1GDTewm-165" value="" style="shape=partialRectangle;html=1;whiteSpace=wrap;connectable=0;top=0;left=0;bottom=0;right=0;overflow=hidden;" vertex="1" parent="e-bXhuMB9QTkd1GDTewm-162">
          <mxGeometry x="40" width="20" height="20" as="geometry">
            <mxRectangle width="20" height="20" as="alternateBounds" />
          </mxGeometry>
        </mxCell>
        <mxCell id="e-bXhuMB9QTkd1GDTewm-166" value="" style="endArrow=none;html=1;rounded=0;entryX=0.963;entryY=0.325;entryDx=0;entryDy=0;entryPerimeter=0;exitX=0;exitY=1;exitDx=0;exitDy=0;" edge="1" parent="1" source="e-bXhuMB9QTkd1GDTewm-129" target="e-bXhuMB9QTkd1GDTewm-129">
          <mxGeometry width="50" height="50" relative="1" as="geometry">
            <mxPoint x="240" y="370" as="sourcePoint" />
            <mxPoint x="290" y="320" as="targetPoint" />
          </mxGeometry>
        </mxCell>
        <mxCell id="e-bXhuMB9QTkd1GDTewm-167" value="" style="shape=table;html=1;whiteSpace=wrap;startSize=0;container=1;collapsible=0;childLayout=tableLayout;fillColor=#1ba1e2;fontColor=#ffffff;strokeColor=#006EAF;" vertex="1" parent="1">
          <mxGeometry x="180" y="220" width="60" height="20" as="geometry" />
        </mxCell>
        <mxCell id="e-bXhuMB9QTkd1GDTewm-168" value="" style="shape=tableRow;horizontal=0;startSize=0;swimlaneHead=0;swimlaneBody=0;top=0;left=0;bottom=0;right=0;collapsible=0;dropTarget=0;fillColor=none;points=[[0,0.5],[1,0.5]];portConstraint=eastwest;" vertex="1" parent="e-bXhuMB9QTkd1GDTewm-167">
          <mxGeometry width="60" height="20" as="geometry" />
        </mxCell>
        <mxCell id="e-bXhuMB9QTkd1GDTewm-169" value="" style="shape=partialRectangle;html=1;whiteSpace=wrap;connectable=0;fillColor=#dae8fc;top=0;left=0;bottom=0;right=0;overflow=hidden;strokeColor=#6c8ebf;" vertex="1" parent="e-bXhuMB9QTkd1GDTewm-168">
          <mxGeometry width="20" height="20" as="geometry">
            <mxRectangle width="20" height="20" as="alternateBounds" />
          </mxGeometry>
        </mxCell>
        <mxCell id="e-bXhuMB9QTkd1GDTewm-170" value="" style="shape=partialRectangle;html=1;whiteSpace=wrap;connectable=0;fillColor=#d5e8d4;top=0;left=0;bottom=0;right=0;overflow=hidden;strokeColor=#82b366;" vertex="1" parent="e-bXhuMB9QTkd1GDTewm-168">
          <mxGeometry x="20" width="20" height="20" as="geometry">
            <mxRectangle width="20" height="20" as="alternateBounds" />
          </mxGeometry>
        </mxCell>
        <mxCell id="e-bXhuMB9QTkd1GDTewm-171" value="？" style="shape=partialRectangle;html=1;whiteSpace=wrap;connectable=0;top=0;left=0;bottom=0;right=0;overflow=hidden;" vertex="1" parent="e-bXhuMB9QTkd1GDTewm-168">
          <mxGeometry x="40" width="20" height="20" as="geometry">
            <mxRectangle width="20" height="20" as="alternateBounds" />
          </mxGeometry>
        </mxCell>
        <mxCell id="e-bXhuMB9QTkd1GDTewm-172" value="" style="shape=table;html=1;whiteSpace=wrap;startSize=0;container=1;collapsible=0;childLayout=tableLayout;fillColor=#1ba1e2;fontColor=#ffffff;strokeColor=#006EAF;" vertex="1" parent="1">
          <mxGeometry x="250" y="180" width="60" height="20" as="geometry" />
        </mxCell>
        <mxCell id="e-bXhuMB9QTkd1GDTewm-173" value="" style="shape=tableRow;horizontal=0;startSize=0;swimlaneHead=0;swimlaneBody=0;top=0;left=0;bottom=0;right=0;collapsible=0;dropTarget=0;fillColor=none;points=[[0,0.5],[1,0.5]];portConstraint=eastwest;" vertex="1" parent="e-bXhuMB9QTkd1GDTewm-172">
          <mxGeometry width="60" height="20" as="geometry" />
        </mxCell>
        <mxCell id="e-bXhuMB9QTkd1GDTewm-174" value="" style="shape=partialRectangle;html=1;whiteSpace=wrap;connectable=0;fillColor=#dae8fc;top=0;left=0;bottom=0;right=0;overflow=hidden;strokeColor=#6c8ebf;" vertex="1" parent="e-bXhuMB9QTkd1GDTewm-173">
          <mxGeometry width="20" height="20" as="geometry">
            <mxRectangle width="20" height="20" as="alternateBounds" />
          </mxGeometry>
        </mxCell>
        <mxCell id="e-bXhuMB9QTkd1GDTewm-175" value="" style="shape=partialRectangle;html=1;whiteSpace=wrap;connectable=0;fillColor=#d5e8d4;top=0;left=0;bottom=0;right=0;overflow=hidden;strokeColor=#82b366;" vertex="1" parent="e-bXhuMB9QTkd1GDTewm-173">
          <mxGeometry x="20" width="20" height="20" as="geometry">
            <mxRectangle width="20" height="20" as="alternateBounds" />
          </mxGeometry>
        </mxCell>
        <mxCell id="e-bXhuMB9QTkd1GDTewm-176" value="？" style="shape=partialRectangle;html=1;whiteSpace=wrap;connectable=0;top=0;left=0;bottom=0;right=0;overflow=hidden;" vertex="1" parent="e-bXhuMB9QTkd1GDTewm-173">
          <mxGeometry x="40" width="20" height="20" as="geometry">
            <mxRectangle width="20" height="20" as="alternateBounds" />
          </mxGeometry>
        </mxCell>
        <mxCell id="e-bXhuMB9QTkd1GDTewm-177" value="" style="shape=table;html=1;whiteSpace=wrap;startSize=0;container=1;collapsible=0;childLayout=tableLayout;fillColor=#1ba1e2;fontColor=#ffffff;strokeColor=#006EAF;" vertex="1" parent="1">
          <mxGeometry x="540" y="265" width="150" height="20" as="geometry" />
        </mxCell>
        <mxCell id="e-bXhuMB9QTkd1GDTewm-178" value="" style="shape=tableRow;horizontal=0;startSize=0;swimlaneHead=0;swimlaneBody=0;top=0;left=0;bottom=0;right=0;collapsible=0;dropTarget=0;fillColor=none;points=[[0,0.5],[1,0.5]];portConstraint=eastwest;" vertex="1" parent="e-bXhuMB9QTkd1GDTewm-177">
          <mxGeometry width="150" height="20" as="geometry" />
        </mxCell>
        <mxCell id="e-bXhuMB9QTkd1GDTewm-179" value="" style="shape=partialRectangle;html=1;whiteSpace=wrap;connectable=0;fillColor=#dae8fc;top=0;left=0;bottom=0;right=0;overflow=hidden;strokeColor=#6c8ebf;" vertex="1" parent="e-bXhuMB9QTkd1GDTewm-178">
          <mxGeometry width="50" height="20" as="geometry">
            <mxRectangle width="50" height="20" as="alternateBounds" />
          </mxGeometry>
        </mxCell>
        <mxCell id="e-bXhuMB9QTkd1GDTewm-180" value="" style="shape=partialRectangle;html=1;whiteSpace=wrap;connectable=0;fillColor=#d5e8d4;top=0;left=0;bottom=0;right=0;overflow=hidden;strokeColor=#82b366;" vertex="1" parent="e-bXhuMB9QTkd1GDTewm-178">
          <mxGeometry x="50" width="50" height="20" as="geometry">
            <mxRectangle width="50" height="20" as="alternateBounds" />
          </mxGeometry>
        </mxCell>
        <mxCell id="e-bXhuMB9QTkd1GDTewm-181" value="？" style="shape=partialRectangle;html=1;whiteSpace=wrap;connectable=0;top=0;left=0;bottom=0;right=0;overflow=hidden;" vertex="1" parent="e-bXhuMB9QTkd1GDTewm-178">
          <mxGeometry x="100" width="50" height="20" as="geometry">
            <mxRectangle width="50" height="20" as="alternateBounds" />
          </mxGeometry>
        </mxCell>
        <mxCell id="e-bXhuMB9QTkd1GDTewm-182" value="待预测实例" style="text;html=1;strokeColor=none;fillColor=none;align=center;verticalAlign=middle;whiteSpace=wrap;rounded=0;" vertex="1" parent="1">
          <mxGeometry x="700" y="260" width="100" height="30" as="geometry" />
        </mxCell>
        <mxCell id="e-bXhuMB9QTkd1GDTewm-183" value="" style="verticalLabelPosition=bottom;verticalAlign=top;html=1;shape=mxgraph.basic.smiley;fillColor=#f8cecc;strokeColor=#b85450;" vertex="1" parent="1">
          <mxGeometry x="430" y="110" width="80" height="80" as="geometry" />
        </mxCell>
        <mxCell id="e-bXhuMB9QTkd1GDTewm-184" value="&lt;font style=&quot;font-size: 17px&quot;&gt;Model&lt;/font&gt;" style="text;html=1;strokeColor=none;fillColor=none;align=center;verticalAlign=middle;whiteSpace=wrap;rounded=0;" vertex="1" parent="1">
          <mxGeometry x="440" y="220" width="60" height="30" as="geometry" />
        </mxCell>
        <mxCell id="e-bXhuMB9QTkd1GDTewm-185" value="" style="curved=1;endArrow=classic;html=1;rounded=0;fontSize=17;exitX=0.659;exitY=0.015;exitDx=0;exitDy=0;exitPerimeter=0;" edge="1" parent="1" source="e-bXhuMB9QTkd1GDTewm-129">
          <mxGeometry width="50" height="50" relative="1" as="geometry">
            <mxPoint x="260" y="60" as="sourcePoint" />
            <mxPoint x="460" y="100" as="targetPoint" />
            <Array as="points">
              <mxPoint x="310" y="30" />
              <mxPoint x="410" y="40" />
            </Array>
          </mxGeometry>
        </mxCell>
        <mxCell id="e-bXhuMB9QTkd1GDTewm-186" value="" style="curved=1;endArrow=classic;html=1;rounded=0;fontSize=17;entryX=0.667;entryY=1;entryDx=0;entryDy=0;entryPerimeter=0;" edge="1" parent="1" target="e-bXhuMB9QTkd1GDTewm-129">
          <mxGeometry width="50" height="50" relative="1" as="geometry">
            <mxPoint x="460" y="250" as="sourcePoint" />
            <mxPoint x="310" y="310" as="targetPoint" />
            <Array as="points">
              <mxPoint x="460" y="250" />
              <mxPoint x="430" y="280" />
              <mxPoint x="380" y="300" />
              <mxPoint x="320" y="300" />
            </Array>
          </mxGeometry>
        </mxCell>
        <mxCell id="e-bXhuMB9QTkd1GDTewm-187" value="预测" style="text;html=1;strokeColor=none;fillColor=none;align=center;verticalAlign=middle;whiteSpace=wrap;rounded=0;fontSize=17;" vertex="1" parent="1">
          <mxGeometry x="350" y="300" width="60" height="30" as="geometry" />
        </mxCell>
        <mxCell id="e-bXhuMB9QTkd1GDTewm-188" value="项目p" style="text;html=1;strokeColor=none;fillColor=none;align=center;verticalAlign=middle;whiteSpace=wrap;rounded=0;fontSize=17;" vertex="1" parent="1">
          <mxGeometry x="180" y="280" width="60" height="30" as="geometry" />
        </mxCell>
        <mxCell id="e-bXhuMB9QTkd1GDTewm-189" value="" style="rounded=1;whiteSpace=wrap;html=1;fontSize=20;" vertex="1" parent="1">
          <mxGeometry x="100" y="390" width="210" height="160" as="geometry" />
        </mxCell>
        <mxCell id="e-bXhuMB9QTkd1GDTewm-190" value="" style="shape=table;html=1;whiteSpace=wrap;startSize=0;container=1;collapsible=0;childLayout=tableLayout;fillColor=#1ba1e2;fontColor=#ffffff;strokeColor=#006EAF;" vertex="1" parent="1">
          <mxGeometry x="135" y="420" width="150" height="20" as="geometry" />
        </mxCell>
        <mxCell id="e-bXhuMB9QTkd1GDTewm-191" value="" style="shape=tableRow;horizontal=0;startSize=0;swimlaneHead=0;swimlaneBody=0;top=0;left=0;bottom=0;right=0;collapsible=0;dropTarget=0;fillColor=none;points=[[0,0.5],[1,0.5]];portConstraint=eastwest;" vertex="1" parent="e-bXhuMB9QTkd1GDTewm-190">
          <mxGeometry width="150" height="20" as="geometry" />
        </mxCell>
        <mxCell id="e-bXhuMB9QTkd1GDTewm-192" value="" style="shape=partialRectangle;html=1;whiteSpace=wrap;connectable=0;fillColor=#dae8fc;top=0;left=0;bottom=0;right=0;overflow=hidden;strokeColor=#6c8ebf;" vertex="1" parent="e-bXhuMB9QTkd1GDTewm-191">
          <mxGeometry width="50" height="20" as="geometry">
            <mxRectangle width="50" height="20" as="alternateBounds" />
          </mxGeometry>
        </mxCell>
        <mxCell id="e-bXhuMB9QTkd1GDTewm-193" value="" style="shape=partialRectangle;html=1;whiteSpace=wrap;connectable=0;fillColor=#d5e8d4;top=0;left=0;bottom=0;right=0;overflow=hidden;strokeColor=#82b366;" vertex="1" parent="e-bXhuMB9QTkd1GDTewm-191">
          <mxGeometry x="50" width="50" height="20" as="geometry">
            <mxRectangle width="50" height="20" as="alternateBounds" />
          </mxGeometry>
        </mxCell>
        <mxCell id="e-bXhuMB9QTkd1GDTewm-194" value="" style="shape=partialRectangle;html=1;whiteSpace=wrap;connectable=0;fillColor=#f0a30a;top=0;left=0;bottom=0;right=0;overflow=hidden;fontColor=#000000;strokeColor=#BD7000;" vertex="1" parent="e-bXhuMB9QTkd1GDTewm-191">
          <mxGeometry x="100" width="50" height="20" as="geometry">
            <mxRectangle width="50" height="20" as="alternateBounds" />
          </mxGeometry>
        </mxCell>
        <mxCell id="e-bXhuMB9QTkd1GDTewm-195" value="" style="shape=table;html=1;whiteSpace=wrap;startSize=0;container=1;collapsible=0;childLayout=tableLayout;fillColor=#1ba1e2;fontColor=#ffffff;strokeColor=#006EAF;" vertex="1" parent="1">
          <mxGeometry x="135" y="460" width="150" height="20" as="geometry" />
        </mxCell>
        <mxCell id="e-bXhuMB9QTkd1GDTewm-196" value="" style="shape=tableRow;horizontal=0;startSize=0;swimlaneHead=0;swimlaneBody=0;top=0;left=0;bottom=0;right=0;collapsible=0;dropTarget=0;fillColor=none;points=[[0,0.5],[1,0.5]];portConstraint=eastwest;" vertex="1" parent="e-bXhuMB9QTkd1GDTewm-195">
          <mxGeometry width="150" height="20" as="geometry" />
        </mxCell>
        <mxCell id="e-bXhuMB9QTkd1GDTewm-197" value="" style="shape=partialRectangle;html=1;whiteSpace=wrap;connectable=0;fillColor=#dae8fc;top=0;left=0;bottom=0;right=0;overflow=hidden;strokeColor=#6c8ebf;" vertex="1" parent="e-bXhuMB9QTkd1GDTewm-196">
          <mxGeometry width="50" height="20" as="geometry">
            <mxRectangle width="50" height="20" as="alternateBounds" />
          </mxGeometry>
        </mxCell>
        <mxCell id="e-bXhuMB9QTkd1GDTewm-198" value="" style="shape=partialRectangle;html=1;whiteSpace=wrap;connectable=0;fillColor=#d5e8d4;top=0;left=0;bottom=0;right=0;overflow=hidden;strokeColor=#82b366;" vertex="1" parent="e-bXhuMB9QTkd1GDTewm-196">
          <mxGeometry x="50" width="50" height="20" as="geometry">
            <mxRectangle width="50" height="20" as="alternateBounds" />
          </mxGeometry>
        </mxCell>
        <mxCell id="e-bXhuMB9QTkd1GDTewm-199" value="" style="shape=partialRectangle;html=1;whiteSpace=wrap;connectable=0;fillColor=#f0a30a;top=0;left=0;bottom=0;right=0;overflow=hidden;fontColor=#000000;strokeColor=#BD7000;" vertex="1" parent="e-bXhuMB9QTkd1GDTewm-196">
          <mxGeometry x="100" width="50" height="20" as="geometry">
            <mxRectangle width="50" height="20" as="alternateBounds" />
          </mxGeometry>
        </mxCell>
        <mxCell id="e-bXhuMB9QTkd1GDTewm-200" value="" style="shape=table;html=1;whiteSpace=wrap;startSize=0;container=1;collapsible=0;childLayout=tableLayout;fillColor=#1ba1e2;fontColor=#ffffff;strokeColor=#006EAF;" vertex="1" parent="1">
          <mxGeometry x="135" y="500" width="150" height="20" as="geometry" />
        </mxCell>
        <mxCell id="e-bXhuMB9QTkd1GDTewm-201" value="" style="shape=tableRow;horizontal=0;startSize=0;swimlaneHead=0;swimlaneBody=0;top=0;left=0;bottom=0;right=0;collapsible=0;dropTarget=0;fillColor=none;points=[[0,0.5],[1,0.5]];portConstraint=eastwest;" vertex="1" parent="e-bXhuMB9QTkd1GDTewm-200">
          <mxGeometry width="150" height="20" as="geometry" />
        </mxCell>
        <mxCell id="e-bXhuMB9QTkd1GDTewm-202" value="" style="shape=partialRectangle;html=1;whiteSpace=wrap;connectable=0;fillColor=#dae8fc;top=0;left=0;bottom=0;right=0;overflow=hidden;strokeColor=#6c8ebf;" vertex="1" parent="e-bXhuMB9QTkd1GDTewm-201">
          <mxGeometry width="50" height="20" as="geometry">
            <mxRectangle width="50" height="20" as="alternateBounds" />
          </mxGeometry>
        </mxCell>
        <mxCell id="e-bXhuMB9QTkd1GDTewm-203" value="" style="shape=partialRectangle;html=1;whiteSpace=wrap;connectable=0;fillColor=#d5e8d4;top=0;left=0;bottom=0;right=0;overflow=hidden;strokeColor=#82b366;" vertex="1" parent="e-bXhuMB9QTkd1GDTewm-201">
          <mxGeometry x="50" width="50" height="20" as="geometry">
            <mxRectangle width="50" height="20" as="alternateBounds" />
          </mxGeometry>
        </mxCell>
        <mxCell id="e-bXhuMB9QTkd1GDTewm-204" value="" style="shape=partialRectangle;html=1;whiteSpace=wrap;connectable=0;fillColor=#f0a30a;top=0;left=0;bottom=0;right=0;overflow=hidden;fontColor=#000000;strokeColor=#BD7000;" vertex="1" parent="e-bXhuMB9QTkd1GDTewm-201">
          <mxGeometry x="100" width="50" height="20" as="geometry">
            <mxRectangle width="50" height="20" as="alternateBounds" />
          </mxGeometry>
        </mxCell>
        <mxCell id="e-bXhuMB9QTkd1GDTewm-205" value="正样本" style="text;html=1;strokeColor=none;fillColor=none;align=center;verticalAlign=middle;whiteSpace=wrap;rounded=0;fontSize=20;" vertex="1" parent="1">
          <mxGeometry x="160" y="570" width="80" height="30" as="geometry" />
        </mxCell>
        <mxCell id="e-bXhuMB9QTkd1GDTewm-206" value="" style="shape=cylinder3;whiteSpace=wrap;html=1;boundedLbl=1;backgroundOutline=1;size=15;fontSize=20;" vertex="1" parent="1">
          <mxGeometry x="370" y="400" width="170" height="130" as="geometry" />
        </mxCell>
        <mxCell id="e-bXhuMB9QTkd1GDTewm-207" value="" style="rounded=0;whiteSpace=wrap;html=1;fillColor=#d5e8d4;strokeColor=#82b366;" vertex="1" parent="1">
          <mxGeometry x="389" y="440" width="50" height="20" as="geometry" />
        </mxCell>
        <mxCell id="e-bXhuMB9QTkd1GDTewm-208" value="" style="rounded=0;whiteSpace=wrap;html=1;fillColor=#d5e8d4;strokeColor=#82b366;" vertex="1" parent="1">
          <mxGeometry x="390" y="480" width="50" height="20" as="geometry" />
        </mxCell>
        <mxCell id="e-bXhuMB9QTkd1GDTewm-210" value="" style="rounded=0;whiteSpace=wrap;html=1;fillColor=#d5e8d4;strokeColor=#82b366;" vertex="1" parent="1">
          <mxGeometry x="460" y="440" width="50" height="20" as="geometry" />
        </mxCell>
        <mxCell id="e-bXhuMB9QTkd1GDTewm-211" value="" style="rounded=0;whiteSpace=wrap;html=1;fillColor=#d5e8d4;strokeColor=#82b366;" vertex="1" parent="1">
          <mxGeometry x="460" y="480" width="50" height="20" as="geometry" />
        </mxCell>
        <mxCell id="e-bXhuMB9QTkd1GDTewm-212" value="源文件A.java" style="strokeWidth=2;html=1;shape=mxgraph.flowchart.multi-document;whiteSpace=wrap;fontSize=20;fillColor=#d5e8d4;strokeColor=#82b366;" vertex="1" parent="1">
          <mxGeometry x="400" y="585" width="88" height="60" as="geometry" />
        </mxCell>
        <mxCell id="e-bXhuMB9QTkd1GDTewm-213" value="" style="rounded=0;whiteSpace=wrap;html=1;fillColor=#d5e8d4;strokeColor=#82b366;" vertex="1" parent="1">
          <mxGeometry x="419" y="760" width="50" height="20" as="geometry" />
        </mxCell>
        <mxCell id="e-bXhuMB9QTkd1GDTewm-214" value="" style="rounded=0;whiteSpace=wrap;html=1;fillColor=#dae8fc;strokeColor=#6c8ebf;" vertex="1" parent="1">
          <mxGeometry x="285" y="620" width="50" height="20" as="geometry" />
        </mxCell>
        <mxCell id="e-bXhuMB9QTkd1GDTewm-217" value="" style="verticalLabelPosition=bottom;verticalAlign=top;html=1;strokeWidth=2;shape=mxgraph.arrows2.arrow;dy=0.6;dx=40;notch=0;fontSize=20;rotation=90;" vertex="1" parent="1">
          <mxGeometry x="390" y="670" width="100" height="50" as="geometry" />
        </mxCell>
      </root>
    </mxGraphModel>
  </diagram>
</mxfile>
